<?xml version="1.0" encoding="utf-8"?>
<!-- Uploaded to: SVG Repo, www.svgrepo.com, Generator: SVG Repo Mixer Tools -->
<svg version="1.1" id="Uploaded to svgrepo.com" xmlns="http://www.w3.org/2000/svg" xmlns:xlink="http://www.w3.org/1999/xlink" 
	 width="800px" height="800px" viewBox="0 0 64 64" xml:space="preserve">
<style type="text/css">
	.fandom_een{fill:#FF786E;}
	.fandom_twee{fill:#BE5652;}
	.fandom_drie{fill:#BE9148;}
	.fandom_vier{fill:#FFC865;}
	.fandom_vijftien{fill:#3A3A3A;}
	.fandom_zestien{fill:#4D4D4D;}
	.fandom_zeventien{fill:#666666;}
	.fandom_achttien{fill:#808080;}
	.st0{fill:#6BC4D2;}
	.st1{fill:#508D9B;}
	.st2{fill:#8579A3;}
	.st3{fill:#00B3AA;}
	.st4{fill:#018273;}
	.st5{fill:#685683;}
	.st6{fill:#EFEAE0;}
	.st7{fill:#AA9991;}
	.st8{fill:#CCCCCC;}
	.st9{fill:#644638;}
	.st10{fill:#4B322A;}
	.st11{fill:#FFFAFA;}
</style>
<g>
	<g>
		<path class="fandom_vier" d="M32,7C18.193,7,7,18.193,7,32h50C57,18.193,45.807,7,32,7z"/>
		<path class="fandom_drie" d="M32,57c13.807,0,25-11.193,25-25H7C7,45.807,18.193,57,32,57z"/>
	</g>
	<g>
		<circle class="fandom_achttien" cx="32" cy="23.5" r="17.5"/>
		<path class="fandom_zeventien" d="M24.035,7.914c-5.66,2.898-9.535,8.79-9.535,15.586C14.5,33.165,22.335,41,32,41
			c6.824,0,12.736-3.907,15.621-9.605C32.646,39.062,16.41,22.972,24.035,7.914z"/>
		<path class="fandom_zestien" d="M32,3c-2.757,0-5,2.243-5,5s2.243,5,5,5s5-2.243,5-5S34.757,3,32,3z M42.542,59h-5.79
			c-0.87,0-1.322-1.1-0.729-1.738l2.063-1.929c0.25-11.38-1.498-17.816-2.779-21.401c1.081-0.105,2.031-0.645,2.684-1.44
			c3.358,8.928,3.111,22.796,3.111,22.796l2.162,1.965C43.866,57.889,43.417,59,42.542,59z M39,30c0,2.209-1.791,4-4,4s-4-1.791-4-4
			s1.791-4,4-4S39,27.791,39,30z M19,22c0,2.209-1.791,4-4,4s-4-1.791-4-4s1.791-4,4-4S19,19.791,19,22z M63.002,50h-5.79
			c-0.875,0-1.325-1.048-0.722-1.682l2.162-1.965c0.639-0.394-0.361-19.569-5.857-23.086C52.265,24.855,50.766,26,49,26
			c-2.209,0-4-1.791-4-4c0-2.209,1.791-4,4-4c1.395,0,2.622,0.714,3.338,1.796c8.343,2.344,9.329,17.712,9.338,26.608l2.055,1.922
			C64.324,48.963,63.872,50,63.002,50z"/>
		<circle class="fandom_een" cx="32" cy="8" r="2.5"/>
		<path class="fandom_twee" d="M30.885,5.774C30.067,6.184,29.5,7.022,29.5,8c0,1.381,1.119,2.5,2.5,2.5
			c0.978,0,1.816-0.567,2.226-1.385C32.08,10.194,29.807,7.919,30.885,5.774z"/>
		<path class="fandom_vijftien" d="M38.571,31.805C37.911,33.107,36.56,34,35,34c-2.209,0-4-1.791-4-4
			c0-1.553,0.886-2.9,2.179-3.563C31.436,29.879,35.148,33.557,38.571,31.805z M50.303,45.36L48,43.094
			c-0.024-10.214-0.379-11.699-0.379-11.699s-1.601,2.698-2.679,3.882c0.135,2.302,0.217,4.895,0.224,7.851l-2.104,2.239
			C42.469,46.005,42.921,47,43.791,47h5.79C50.456,47,50.906,45.994,50.303,45.36z M23,43.031v-4.544
			c-0.947-0.57-1.834-1.225-2.653-1.958l-0.179,6.596l-2.107,2.2C17.469,45.963,17.921,47,18.791,47h5.79
			c0.875,0,1.325-1.048,0.722-1.682L23,43.031z M13.179,18.437c-0.615,0.315-1.138,0.785-1.517,1.358
			c-8.343,2.343-9.329,17.712-9.338,26.608l-2.055,1.922C-0.324,48.963,0.128,50,0.998,50h5.79c0.875,0,1.325-1.048,0.722-1.682
			l-2.162-1.965c-0.639-0.394,0.361-19.569,5.857-23.086C11.735,24.855,13.234,26,15,26c1.56,0,2.911-0.893,3.571-2.195
			C15.148,25.557,11.437,21.879,13.179,18.437z M47.179,18.437C45.886,19.1,45,20.447,45,22c0,2.209,1.791,4,4,4
			c1.56,0,2.911-0.893,3.571-2.195C49.148,25.557,45.437,21.879,47.179,18.437z"/>
	</g>
</g>
</svg>